<svg id="Layer_1" data-name="Layer 1" xmlns="http://www.w3.org/2000/svg" viewBox="0 0 1468 449"><defs><style>.cls-1{fill:#e8e8e8;}.cls-2{fill:#e78c00;}</style></defs><title>Poderr Grande</title><rect class="cls-1" width="1468" height="449"/><path class="cls-2" d="M-351.75,172.48q17.63-3.07,35.28-5.94c9.54-1.56,17-1.74,22.48-.59s9.72,3.39,12.86,6.68a33.28,33.28,0,0,1,7.24,12.6q2.53,7.67,5,24.14l2.28,15.28q2.52,16.82,1.07,24.89a21.51,21.51,0,0,1-7.7,13.26q-6.25,5.18-17.35,6.93l-9.09,1.47q5.74,35.26,11.48,70.54-16.53,2.7-33,5.58Q-336.48,259.9-351.75,172.48Zm39.91,24.07,7.26,44.57c1-.08,1.83-.18,2.53-.3,3.14-.51,5.16-1.88,6.05-4.14s.82-6.62-.21-13.12q-1.14-7.2-2.29-14.39-1.42-9-4-11.35T-311.84,196.55Z" transform="translate(550 -14)"/><path class="cls-2" d="M-173.43,251.26q3.18,26.57,3.58,37.72a53,53,0,0,1-3.28,20.88,35.41,35.41,0,0,1-11.19,15.64,36.53,36.53,0,0,1-18.27,7.34,37.37,37.37,0,0,1-19-2.11,34.49,34.49,0,0,1-15.1-12,52.09,52.09,0,0,1-8.87-19.21q-2.53-10.69-6.51-37.82-2.21-15-4.4-30-3.88-26.46-4.54-37.62a50.38,50.38,0,0,1,3-21,35.49,35.49,0,0,1,11.62-15.94A39.91,39.91,0,0,1-227,149.53a40.63,40.63,0,0,1,20.11,2.09,34.58,34.58,0,0,1,15.61,12.14,49.48,49.48,0,0,1,8.66,19.38q2.29,10.77,5.55,38Q-175.23,236.19-173.43,251.26ZM-215,197.71q-1.62-12.27-3.1-15.57t-4.72-2.86a4.6,4.6,0,0,0-3.81,3.33q-1.07,3,.76,16.55,5.53,41.06,11.08,82.13,2.07,15.31,3.47,18.78c.93,2.3,2.5,3.31,4.73,3s3.55-1.87,3.83-4.71-.27-9.43-1.63-19.79Q-209.74,238.14-215,197.71Z" transform="translate(550 -14)"/><path class="cls-2" d="M-172.66,146.54q13.17-1.53,26.36-2.93c17-1.82,28.65-1.91,34.84-.45a25.8,25.8,0,0,1,14.61,8.76,36.49,36.49,0,0,1,7.23,15q1.92,8.46,4.16,33.58,2.76,30.94,5.51,61.91,2.11,23.81,1.2,32t-4.54,13.07a21.7,21.7,0,0,1-9.39,7.26c-3.84,1.58-9.74,2.75-17.69,3.55q-21,2.11-41.93,4.54Q-162.49,234.69-172.66,146.54Zm38.38,26.33q6,58.07,12.08,116.12,7.26-.75,8.53-4.9t-.49-21.82q-3.45-34.3-6.89-68.6-1.2-12-2.12-15.32a7.62,7.62,0,0,0-3.16-4.7C-127.82,172.74-130.47,172.47-134.28,172.87Z" transform="translate(550 -14)"/><path class="cls-2" d="M-77.85,137.05q29.43-2.51,58.9-4.44,1.15,17.73,2.33,35.44-11.65.76-23.32,1.63,1.23,16.77,2.47,33.56,10.78-.8,21.58-1.51,1.11,16.85,2.23,33.69-10.66.71-21.34,1.49l2.85,38.92q12.38-.9,24.76-1.71,1.15,17.72,2.3,35.44-28.89,1.88-57.77,4.33Q-70.34,225.47-77.85,137.05Z" transform="translate(550 -14)"/><path class="cls-2" d="M-6.44,131.82q12.51-.78,25-1.45c16.68-.89,28-.54,34,.88s11,5.53,14.93,12.29,6.22,17.7,6.77,32.82q.75,20.7-2.84,28t-14.8,9.15c6.91,2,11.6,4.83,14.08,8.54a30.51,30.51,0,0,1,4.74,10.29q1,4.74,1.81,26.21L79,305.29q-15.49.57-31,1.3-1.38-29.46-2.77-58.91-.66-14.24-2.49-17.55c-1.22-2.21-4.19-3.21-8.91-3q2,40,4,79.92Q21.17,307.92,4.5,309-1,220.39-6.44,131.82Zm36.88,28.34q1,19.71,2,39.41c3.88-.19,6.57-1,8.06-2.53s2.06-6.15,1.7-14l-.46-9.74q-.39-8.43-2.81-11C37.32,160.7,34.49,160,30.44,160.16Z" transform="translate(550 -14)"/><path class="cls-2" d="M86.21,127.47q12.53-.41,25.05-.7c16.7-.4,28,.29,34,1.89s10.79,5.84,14.56,12.72,5.69,17.88,5.79,33q.13,20.73-3.67,27.87c-2.53,4.78-7.55,7.67-15.06,8.72,6.85,2.17,11.45,5.17,13.82,8.95a30.51,30.51,0,0,1,4.44,10.43q.89,4.76,1,26.25.16,23.4.32,46.8-15.51.11-31,.38l-1-59q-.24-14.25-2-17.62T123.62,224q.82,40,1.66,80-16.69.34-33.38.88Q89.05,216.15,86.21,127.47Zm36,29.42q.4,19.73.82,39.46,5.83-.12,8.14-2.3t2.1-13.91c-.06-3.25-.11-6.5-.17-9.75q-.15-8.44-2.48-11T122.23,156.89Z" transform="translate(550 -14)"/><path class="cls-2" d="M207.37,256.27q16.27.11,32.55.4-.22,12.39,0,15.62a9.8,9.8,0,0,0,1.87,5.46,5.62,5.62,0,0,0,4.63,2.29,4.93,4.93,0,0,0,4.12-2,9.51,9.51,0,0,0,1.92-5.33q.27-3.29.5-13.26.32-14.13.62-28.27-2.59,7.06-7.52,10.53a20,20,0,0,1-12.12,3.35,22.42,22.42,0,0,1-15.78-6.79,29.59,29.59,0,0,1-8.64-15.86q-1.8-9.22-1.7-24.9,0-7.06.1-14.14.12-18.63,1.31-27.72a41.93,41.93,0,0,1,5.94-16.78A31.85,31.85,0,0,1,228.27,127a41.24,41.24,0,0,1,19.41-4q13.63.27,22.26,5.45A33.19,33.19,0,0,1,283,143.08a49.8,49.8,0,0,1,4.88,19.63q.42,10.22-.55,39.46l-.81,24.65q-1.05,31.67-2,42.33a50.63,50.63,0,0,1-6.2,20,33.93,33.93,0,0,1-13.65,13.92,38.55,38.55,0,0,1-19.37,4.33c-9-.18-16.37-2.3-22.07-6.39A33.6,33.6,0,0,1,211,283.92Q207.27,272.92,207.37,256.27Zm33.54-54.95q-.21,11.19,1.91,13.85t4.4,2.72a5.27,5.27,0,0,0,5.09-3.24q1.66-3.32,1.89-13.06.35-16.07.71-32.11.26-11.73-1.2-15.38a5.29,5.29,0,0,0-5.06-3.72q-2.16,0-4.55,2.71t-2.6,15Q241.2,184.72,240.91,201.32Z" transform="translate(550 -14)"/><path class="cls-2" d="M380,179.07q-16.69-1-33.41-1.92.64-12.37.6-15.61a9.27,9.27,0,0,0-1.72-5.52,5.93,5.93,0,0,0-4.76-2.44,5.22,5.22,0,0,0-4.35,1.87,9.55,9.55,0,0,0-2.17,5.28q-.4,3.27-.88,13.23L332,202.22q2.88-7,8-10.32A20.27,20.27,0,0,1,352.35,189a22.77,22.77,0,0,1,15.76,7.48,29.17,29.17,0,0,1,7.9,16.3q1.31,9.3.32,25-.45,7-.89,14.11a268.75,268.75,0,0,1-2.78,27.62,42.83,42.83,0,0,1-6.58,16.45,31.76,31.76,0,0,1-13,11.26,37.81,37.81,0,0,1-18.41,3.3q-12.9-.65-20.92-5.91a33.13,33.13,0,0,1-12.18-14.71A53.53,53.53,0,0,1,297,270.19q-.37-10.21.69-39.58.45-12.27.91-24.53,1.15-31.67,2.26-42.32a49.1,49.1,0,0,1,6.55-20A33.72,33.72,0,0,1,322,130.05a42,42,0,0,1,20.69-3.81q14.29.72,23.11,7.28a32.74,32.74,0,0,1,12,17.74Q381.08,162.44,380,179.07Zm-36.28,53.36q.48-9.41-.88-13a5.43,5.43,0,0,0-10.07-.67q-1.75,3.27-2.22,13-.75,16-1.52,32.08-.56,11.72.75,15.4t4.74,3.85q2.07.11,4.45-2.57t3-14.94Q342.87,249,343.73,232.43Z" transform="translate(550 -14)"/><path class="cls-2" d="M406.8,275.28q-1.32,18-2.66,36.08-12.08-.9-24.15-1.69l2.37-36.09Q394.59,274.38,406.8,275.28Z" transform="translate(550 -14)"/><path class="cls-2" d="M482.54,217.13a22.16,22.16,0,0,1,10.07,12.19q2.89,8.06,0,36.43-2.15,21.06-6.84,32.32t-13.81,16.49c-6.09,3.49-13.56,4.81-22.46,4-10.1-.91-17.84-3.91-23.24-9.08a33.15,33.15,0,0,1-10.07-18.18q-2-10.43,0-35.68.54-7,1.07-14,16.37,1.26,32.72,2.68-1.25,14.37-2.51,28.73c-.66,7.64-.76,12.53-.27,14.66a4.23,4.23,0,0,0,4.15,3.51q3.74.33,5.3-3.49t3.07-20.41q.56-6.12,1.12-12.23.92-10.15-.35-15c-.85-3.23-2.35-5.44-4.48-6.62s-6.39-2.13-12.78-2.82q1.09-12.82,2.18-25.67c7.87.67,12.77.71,14.7.07s3.43-2.25,4.5-4.87,1.86-6.8,2.39-12.55l.9-9.83q.84-9.27-.34-12.36a5.11,5.11,0,0,0-9.32-.67q-1.57,3-2.45,13.16-.64,7.26-1.27,14.52-16.63-1.46-33.29-2.72.58-7.55,1.15-15.09,1.94-25.35,11.5-33.57c6.39-5.47,16.07-7.68,29-6.53C479,136,489.56,141.17,494.47,150s6.61,20.48,5.12,35.08q-1.51,14.82-5.22,21.11T482.54,217.13Z" transform="translate(550 -14)"/><path class="cls-2" d="M548.59,146.86q29.82,3.46,59.59,7.51-2.4,17.59-4.79,35.2-12-1.65-24.11-3.18-2.13,16.68-4.27,33.38,10.62,1.35,21.24,2.79Q594,239.29,591.73,256q-10.5-1.42-21-2.76-4.72,37-9.46,73.94-16.59-2.13-33.2-4.06Z" transform="translate(550 -14)"/><path class="cls-2" d="M724.91,172.48,694.4,347.32q-14.43-2.52-28.88-4.9,9.71-59.12,19.39-118.23Q669.21,282.32,654,340.55q-10.26-1.65-20.51-3.21,2.78-58.8,5.08-117.64-8.64,57.9-17.27,115.8-14.47-2.16-29-4.17,12.2-87.88,24.38-175.79,22.74,3.15,45.44,6.64-.4,16.14-1.62,37.93-1,22.68-2.06,45.37,10.34-40.33,20.88-80.6Q702.15,168.51,724.91,172.48Z" transform="translate(550 -14)"/></svg>