<svg xmlns="http://www.w3.org/2000/svg" viewBox="0 0 108.94 25.41"><defs><style>.cls-1{fill:#f40;}</style></defs><title>poderr KALDI</title><g id="Layer_2" data-name="Layer 2"><g id="Layer_3" data-name="Layer 3"><path class="cls-1" d="M5.26,15.47l-.92,0c-.31,0-.59,0-.86-.07V25H0V.46H5.49A17,17,0,0,1,7.9.61a9.15,9.15,0,0,1,1.84.47,6.11,6.11,0,0,1,3,2.45,8,8,0,0,1,1,4.29A8.47,8.47,0,0,1,13.22,11a6.39,6.39,0,0,1-1.66,2.41,7.54,7.54,0,0,1-2.68,1.52A11.45,11.45,0,0,1,5.26,15.47ZM3.48,11.61c.2,0,.46.06.76.08s.63,0,1,0a7.93,7.93,0,0,0,2.36-.3,4,4,0,0,0,1.54-.81,3.18,3.18,0,0,0,.84-1.26,5,5,0,0,0,.25-1.62,4.27,4.27,0,0,0-.38-1.87A2.62,2.62,0,0,0,8.47,4.63a4.57,4.57,0,0,0-1.23-.32,13.11,13.11,0,0,0-1.8-.1h-2Z"/><path class="cls-1" d="M35.16,12.7a20.18,20.18,0,0,1-.61,5.14,12.68,12.68,0,0,1-1.81,4,8.56,8.56,0,0,1-2.91,2.62,8.15,8.15,0,0,1-3.93.93A8.15,8.15,0,0,1,22,24.48a8.59,8.59,0,0,1-2.92-2.62,12.45,12.45,0,0,1-1.8-4,20.17,20.17,0,0,1-.62-5.14,20.15,20.15,0,0,1,.62-5.13,12.36,12.36,0,0,1,1.8-4A8.59,8.59,0,0,1,22,.93,8.15,8.15,0,0,1,25.9,0a8.15,8.15,0,0,1,3.93.93,8.56,8.56,0,0,1,2.91,2.62,12.58,12.58,0,0,1,1.81,4A20.16,20.16,0,0,1,35.16,12.7Zm-3.59,0a15.6,15.6,0,0,0-.43-3.9A8.91,8.91,0,0,0,30,6a4.94,4.94,0,0,0-1.79-1.66,5,5,0,0,0-4.55,0A4.94,4.94,0,0,0,21.83,6a9.15,9.15,0,0,0-1.18,2.8,16.12,16.12,0,0,0-.42,3.9,16.15,16.15,0,0,0,.42,3.91,9,9,0,0,0,1.18,2.79,5.12,5.12,0,0,0,1.79,1.66,4.9,4.9,0,0,0,4.55,0A5.12,5.12,0,0,0,30,19.4a8.75,8.75,0,0,0,1.18-2.79A15.63,15.63,0,0,0,31.57,12.7Z"/><path class="cls-1" d="M38.86,25V.46h5c.45,0,.9,0,1.36,0s.91.09,1.34.17.86.16,1.27.26A8.16,8.16,0,0,1,49,1.32,9,9,0,0,1,51.67,3a9.88,9.88,0,0,1,1.95,2.51,12.26,12.26,0,0,1,1.19,3.23,17.47,17.47,0,0,1,.41,3.87,19.75,19.75,0,0,1-.34,3.71,13.17,13.17,0,0,1-1,3.16A9.58,9.58,0,0,1,52.08,22a8.72,8.72,0,0,1-2.5,1.78,11.23,11.23,0,0,1-2.75.88,18.91,18.91,0,0,1-3.45.29Zm4.92-3.75a8.94,8.94,0,0,0,4.77-1.08,6,6,0,0,0,2.3-2.82,12,12,0,0,0,.79-4.72,13.12,13.12,0,0,0-.26-2.71,8.48,8.48,0,0,0-.74-2.15A6.12,6.12,0,0,0,49.47,6.1,6,6,0,0,0,47.91,5a7,7,0,0,0-1.8-.59,12.67,12.67,0,0,0-2.23-.18H42.34v17Z"/><path class="cls-1" d="M62.4,21.2h9.35V25H58.91V.46H71.24V4.21H62.4v6.33H70V14.3H62.4Z"/><path class="cls-1" d="M89.52,7.82a8,8,0,0,1-1.11,4.34A6.49,6.49,0,0,1,85,14.81v.07L90.67,25H86.49l-5.18-9.48H78.93V25H75.44V.46h5.79A15.89,15.89,0,0,1,83.9.67,8.05,8.05,0,0,1,86,1.3a5.88,5.88,0,0,1,2.59,2.44A8.32,8.32,0,0,1,89.52,7.82Zm-8.87,3.9a12.77,12.77,0,0,0,2-.14,5.18,5.18,0,0,0,1.4-.41,2.94,2.94,0,0,0,1.46-1.4,4.92,4.92,0,0,0,.4-2A4.34,4.34,0,0,0,85.61,6a2.42,2.42,0,0,0-1.08-1.2,3.75,3.75,0,0,0-1.25-.43,10.9,10.9,0,0,0-1.87-.14H78.93v7.51Z"/><path class="cls-1" d="M107.79,7.82a8,8,0,0,1-1.1,4.34,6.49,6.49,0,0,1-3.4,2.65v.07L108.94,25h-4.17l-5.18-9.48H97.2V25H93.72V.46h5.79a16.06,16.06,0,0,1,2.67.21,8.17,8.17,0,0,1,2.12.63,5.8,5.8,0,0,1,2.58,2.44A8.21,8.21,0,0,1,107.79,7.82Zm-8.87,3.9a12.82,12.82,0,0,0,2-.14,5.29,5.29,0,0,0,1.4-.41,2.94,2.94,0,0,0,1.46-1.4,4.92,4.92,0,0,0,.4-2A4.52,4.52,0,0,0,103.89,6a2.39,2.39,0,0,0-1.09-1.2,3.59,3.59,0,0,0-1.25-.43,10.69,10.69,0,0,0-1.86-.14H97.2v7.51Z"/></g></g></svg>