<svg id="Layer_1" data-name="Layer 1" xmlns="http://www.w3.org/2000/svg" xmlns:xlink="http://www.w3.org/1999/xlink" viewBox="0 0 640 480"><defs><style>.cls-1{fill:#e8e8e8;}.cls-2{filter:url(#AI_Shadow_2);}.cls-3{fill:#e78c00;stroke:#000;stroke-miterlimit:10;}</style><filter id="AI_Shadow_2" x="-15" y="-15" width="140" height="130" name="AI_Shadow_2"><feGaussianBlur result="blur" stdDeviation="6" in="SourceAlpha"/><feOffset result="offsetBlurredAlpha" dx="8" dy="8" in="blur"/><feMerge><feMergeNode in="offsetBlurredAlpha"/><feMergeNode in="SourceGraphic"/></feMerge></filter></defs><title>Poderr Shadow</title><rect class="cls-1" width="640" height="480"/><g class="cls-2"><path class="cls-3" d="M42.07,243.56q7.4-3.59,14.83-7.09,6-2.83,10.88-1.55a21.33,21.33,0,0,1,9.39,5.85,71.2,71.2,0,0,1,9.24,11.86c3.12,4.87,7.52,12.6,13.12,23.22q3.89,7.38,7.73,14.79c5.62,10.86,9.27,19,11.08,24.27s2.41,9.74,1.86,13.27a9.18,9.18,0,0,1-5.4,7.39l-3.72,1.73q17.4,34.26,33.61,68.91-6.63,3-13.21,6.18Q90.47,326.77,42.07,243.56Zm30.81,21.65Q84.69,286.58,96,308.14a5.81,5.81,0,0,0,1.1-.38q2-.9,1.14-4.24t-5.78-12.74q-3.69-7-7.43-13.89c-3.11-5.76-5.46-9.37-7-10.83A4.3,4.3,0,0,0,72.88,265.21Z"/><path class="cls-3" d="M162.55,312.19c8.13,17.4,13.55,29.83,16.55,37.2a116.92,116.92,0,0,1,6.46,20.94q2,9.87.75,16.11t-5.61,8.12c-2.77,1.19-5.92.74-9.49-1.33s-7.38-5.85-11.51-11.31a128.6,128.6,0,0,1-11.59-18.64c-3.61-7-9.62-19.33-18.31-37q-7.23-14.65-14.67-29.25c-8.75-17.13-15-29.25-18.51-36.45a117.36,117.36,0,0,1-7.89-20.54Q86.11,230.36,87.2,224t6-8.49c3.1-1.36,6.7-1.09,10.76.81s8.41,5.53,13,10.87a108.94,108.94,0,0,1,12.69,18.42c3.85,7,10.22,19.25,18.82,37Q155.63,297.38,162.55,312.19Zm-42.12-50.38a167.31,167.31,0,0,0-8.3-15q-2.16-3.14-3.54-2.53c-.78.34-.9,1.49-.37,3.46s3.09,7.33,7.61,16.11q20.51,39.82,39.39,80.16c4.7,10,7.66,16.18,9,18.43s2.44,3.17,3.35,2.78.93-2-.05-4.84S163.74,351,159,340.81Q140.51,301.08,120.43,261.81Z"/><path class="cls-3" d="M118.28,209.16q5.68-2.39,11.4-4.73c7.39-3,12.92-4,16.52-3.09s7.22,3.44,10.81,7.46a78.27,78.27,0,0,1,9.93,14.26c3,5.48,8.46,16.44,16.07,32.94q14,30.53,27.18,61.28c6.73,15.77,10.83,26.44,12.57,32a52.27,52.27,0,0,1,2.74,13.43q.13,5.18-1.6,7.92t-6.69,4.69q-8.7,3.42-17.32,6.94Q162.84,294.67,118.28,209.16Zm30,23.14Q176.26,289,201,346.66c2-.8,2.71-2.61,2.05-5.43s-3.48-10.07-8.6-21.74q-14.92-34-31-67.62c-3.74-7.85-6.26-12.84-7.5-15a14.35,14.35,0,0,0-3.51-4.4A4.1,4.1,0,0,0,148.3,232.3Z"/><path class="cls-3" d="M159.54,192.55q12.9-5,26-9.77,8.23,17.46,16.18,35-5.11,1.86-10.21,3.75,7.62,16.58,15,33.21,4.68-1.73,9.37-3.42,7.29,16.74,14.3,33.54-4.61,1.65-9.19,3.34Q229.13,307.57,237,327q5.27-1.92,10.54-3.8,7,17.76,13.75,35.58-12.21,4.32-24.28,8.86Q202,279.19,159.54,192.55Z"/><path class="cls-3" d="M191,180.77q5.55-2,11.12-4c7.44-2.63,12.88-3.53,16.27-2.77s7.45,4.3,12.12,10.62,10.24,17,16.57,32.16c5.77,13.81,9,23.31,9.76,28.44s-.28,8.74-3.19,10.79a19.08,19.08,0,0,1,9.67,7.12,65.23,65.23,0,0,1,6,9.9c1.48,3.12,5.05,11.88,10.48,26.32q8.86,23.6,17.19,47.31-6.65,2.15-13.25,4.36-10.76-29.76-22.33-59.36c-3.74-9.54-6.34-15.35-7.74-17.46s-3.12-2.8-5.17-2.1q16.23,40,30.91,80.38-7.1,2.4-14.15,4.88Q232,268.22,191,180.77Zm29.24,24.49q8.64,19.59,16.91,39.27a3.58,3.58,0,0,0,2.69-3.37c.09-1.65-1.49-6.39-4.8-14.18q-2.07-4.86-4.16-9.72c-2.41-5.6-4.35-9.16-5.79-10.67A4.31,4.31,0,0,0,220.27,205.26Z"/><path class="cls-3" d="M232.44,166.42q5.64-1.86,11.3-3.69c7.55-2.44,13.05-3.2,16.44-2.35s7.39,4.49,11.93,10.93S282,188.59,288,203.88c5.45,14,8.41,23.54,9.08,28.69s-.51,8.72-3.49,10.7a19.2,19.2,0,0,1,9.55,7.37,64.2,64.2,0,0,1,5.82,10.05c1.42,3.16,4.78,12,9.87,26.58q8.31,23.84,16.1,47.74-6.76,2-13.48,4-10-30-20.94-59.92c-3.51-9.63-6-15.51-7.34-17.65s-3.07-2.89-5.16-2.23q15.3,40.42,29.05,81.15-7.22,2.22-14.4,4.51Q271.32,254.9,232.44,166.42Zm28.79,25.23q8.19,19.82,16,39.7a3.59,3.59,0,0,0,2.8-3.3c.13-1.65-1.33-6.42-4.46-14.3q-2-4.92-3.94-9.82-3.42-8.51-5.54-10.82A4.38,4.38,0,0,0,261.23,191.65Z"/><path class="cls-3" d="M336.94,281.67q7.23-2,14.51-4c2.77,8.47,4.51,13.8,5.29,16a21.4,21.4,0,0,0,2.64,5.34c1,1.37,1.92,1.93,2.79,1.7s1.12-1.07,1.15-2.63a20.51,20.51,0,0,0-.94-5.73c-.65-2.27-2.06-6.82-4.26-13.65q-4.68-14.52-9.55-29,1.35,7.59.38,11.83c-.64,2.83-2,4.53-4.19,5.12-2.68.73-5.79-.86-9.38-4.77a56.38,56.38,0,0,1-9.54-15c-2.78-6.1-6.08-14.47-10-25.1q-2.64-7.19-5.32-14.37c-4.72-12.63-8.17-22-10.21-28.29a89.9,89.9,0,0,1-4-17.81c-.62-5.63-.24-10.26,1.17-13.87a10.6,10.6,0,0,1,7.21-6.85,14.52,14.52,0,0,1,12.3,2.17q6,3.93,11.73,12.79a111.53,111.53,0,0,1,9.85,19.2c2.73,6.89,7.71,20.32,14.55,40.33q4.32,12.66,8.5,25.33c7.14,21.7,11.54,36.28,13.62,43.67a109.62,109.62,0,0,1,3.86,21.49q.76,10.4-1.48,16.26T370.59,329c-4,1.06-7.86-.13-11.67-3.57s-7.45-8.73-11-15.91A233.49,233.49,0,0,1,336.94,281.67ZM332.12,221c2.7,7.61,4.66,12.23,5.94,13.84s2.25,2.33,2.94,2.15c1-.28,1.4-1.62,1.09-4s-1.6-6.94-3.94-13.59q-5.76-16.42-11.78-32.8c-2.93-8-5.12-13.12-6.51-15.44s-2.65-3.34-3.75-3q-1,.28-1,3.42c0,2.09,1.59,7.3,4.69,15.63Q326.1,204.07,332.12,221Z"/><path class="cls-3" d="M385.84,176.4q-7.8,1.82-15.56,3.68c-2.88-8.5-4.77-13.84-5.6-16.05a20.35,20.35,0,0,0-2.88-5.35c-1.08-1.36-2.1-1.93-3.06-1.69s-1.22,1.07-1.23,2.62a19.12,19.12,0,0,0,1.05,5.74c.71,2.27,2.26,6.82,4.61,13.66q5,14.53,9.8,29.1-1.25-7.62-.2-11.85t4.43-5c2.83-.67,6.08,1,9.7,5a52.81,52.81,0,0,1,9.3,15.37c2.57,6.22,5.52,14.75,8.77,25.58q2.2,7.32,4.35,14.66c3.79,12.9,6.34,22.53,7.79,28.9a89.48,89.48,0,0,1,2.33,18.06q.15,8.49-2.16,13.73t-7,6.33c-3.85.91-7.47,0-10.9-2.85s-6.72-7.24-9.94-13.29a131.43,131.43,0,0,1-8.39-19.5c-2.37-6.95-6.64-20.53-13.17-40.69q-4.11-12.63-8.35-25.24c-7.31-21.7-12.38-36.18-14.76-43.54a110.29,110.29,0,0,1-4.8-21.39q-1.22-10.37,1.12-16.3c1.56-4,4.15-6.39,7.79-7.29,4.47-1.11,8.9.06,13.24,3.5s8.44,8.79,12.26,16A186.23,186.23,0,0,1,385.84,176.4Zm3,60.79c-2-6.5-3.67-10.89-4.91-13.19s-2.41-3.33-3.48-3.07-1.45,1.59-1.2,4,1.46,7,3.57,13.69Q388,255.21,393,271.82c2.42,8.09,4.19,13.33,5.36,15.72s2.27,3.46,3.31,3.21c.62-.14,1-1.26,1.11-3.35s-1-7.38-3.54-15.85Q394.18,254.34,388.83,237.19Z"/><path class="cls-3" d="M430.65,270.68q5.16,18.84,10,37.7-5.49,1.17-10.95,2.36-5-18.83-10.24-37.63C423.18,272.29,426.91,271.47,430.65,270.68Z"/><path class="cls-3" d="M444.55,196.84c3,1.91,5.9,5.45,8.54,10.62s6.7,17.71,11.85,37.63c3.82,14.79,6.1,26.37,7,34.74s.53,14.93-1.08,19.68-4.44,7.51-8.51,8.31c-4.63.9-8.84-.83-12.73-5.22a56.4,56.4,0,0,1-9.89-17c-2.72-7-6.43-19.23-11.37-36.81q-2.06-7.31-4.16-14.6,7.59-1.62,15.2-3.16,4.2,15,8.19,30.1c2.13,8,3.6,13.09,4.46,15.2s1.83,3.07,2.88,2.86,1.56-1.75,1.23-4.57-2-10.05-5.06-21.67q-1.69-6.4-3.43-12.83a111.92,111.92,0,0,0-5.07-15.41q-2.17-4.76-4.17-6c-1.33-.82-3.52-1-6.55-.54Q428,204.76,424,191.35c3.69-.76,5.86-1.65,6.49-2.66s.72-3,.27-5.87a109.81,109.81,0,0,0-3.4-13.36q-1.56-5.15-3.14-10.27c-2-6.47-3.57-10.68-4.67-12.63s-2.16-2.84-3.13-2.64-1.52,1.47-1.25,3.72,1.55,6.9,3.75,14q2.35,7.57,4.66,15.16-7.85,1.62-15.66,3.32-2.46-7.84-5-15.69c-5.64-17.57-8.25-29.72-7.5-36.5s4.2-10.84,10.39-12.14c7.73-1.63,14.42,1.6,19.89,9.64s10.53,19.73,15.09,35.06c3.08,10.37,4.76,18,5.13,22.76A36.55,36.55,0,0,1,444.55,196.84Z"/><path class="cls-3" d="M448.49,111.25q14.44-2.64,29-5,5.4,18.66,10.5,37.35-5.85.94-11.68,1.93,4.94,17.69,9.59,35.38c3.4-.56,6.8-1.12,10.21-1.66Q500.7,197,505,214.81c-3.34.52-6.68,1.06-10,1.6q9.7,39.26,18,78.6-7.74,1.23-15.46,2.53Q476.87,204.11,448.49,111.25Z"/><path class="cls-3" d="M535.14,97.76q24.25,94.16,40.8,188.67-6.9.79-13.77,1.64-11.67-63.65-26.85-127.19,12.24,63.9,21.36,127.88c-3.24.41-6.48.84-9.72,1.27q-14.79-61.68-33.33-123.12,15.47,61.86,27.58,123.91-6.84.94-13.64,2-19.1-93.85-45.9-187.25,11.13-1.82,22.34-3.46c3.76,11.16,8,24.35,12.6,39.56q7.32,23.7,14.07,47.45-8.34-44.16-18.17-88.25Q523.79,99.23,535.14,97.76Z"/></g></svg>