<svg id="Layer_1" data-name="Layer 1" xmlns="http://www.w3.org/2000/svg" viewBox="0 0 109 24"><defs><style>.cls-1{fill:#e8e8e8;}.cls-2{fill:#e78c00;}</style></defs><title>Poderr 96.3Simple</title><rect class="cls-1" width="109" height="24"/><path class="cls-2" d="M213.37,236.47,216,236a5.79,5.79,0,0,1,1.63-.1,1.72,1.72,0,0,1,.91.32,1.55,1.55,0,0,1,.49.66,6.22,6.22,0,0,1,.3,1.28l.12.82a3.26,3.26,0,0,1,0,1.34,1.29,1.29,0,0,1-.6.74,3.55,3.55,0,0,1-1.29.42l-.67.11c.2,1.26.41,2.52.61,3.77l-2.45.42C214.46,242.7,213.91,239.59,213.37,236.47Zm2.82,1.17.39,2.38.18,0a.65.65,0,0,0,.46-.24,1.2,1.2,0,0,0,0-.71l-.12-.77a.88.88,0,0,0-.26-.6A1,1,0,0,0,216.19,237.64Z" transform="translate(-198 -228)"/><path class="cls-2" d="M226.15,240.2a17.87,17.87,0,0,1,.17,2,2.14,2.14,0,0,1-.29,1.13,2.24,2.24,0,0,1-.86.87,3.69,3.69,0,0,1-1.37.45,3.78,3.78,0,0,1-1.4-.07,2.14,2.14,0,0,1-1.08-.6,2.24,2.24,0,0,1-.6-1c-.1-.38-.22-1.05-.37-2-.07-.54-.15-1.07-.23-1.61a18.54,18.54,0,0,1-.22-2,2.1,2.1,0,0,1,.28-1.14,2.28,2.28,0,0,1,.88-.89,3.76,3.76,0,0,1,1.43-.46,3.91,3.91,0,0,1,1.46.06,2.42,2.42,0,0,1,1.11.61,2.17,2.17,0,0,1,.58,1,18.34,18.34,0,0,1,.32,2C226,239.13,226.09,239.67,226.15,240.2Zm-2.91-2.77a2.69,2.69,0,0,0-.19-.83.29.29,0,0,0-.33-.14.34.34,0,0,0-.29.19,2,2,0,0,0,0,.88c.2,1.47.4,2.93.59,4.39a4.91,4.91,0,0,0,.21,1,.28.28,0,0,0,.34.14.29.29,0,0,0,.29-.26,4.48,4.48,0,0,0-.06-1.06Z" transform="translate(-198 -228)"/><path class="cls-2" d="M226.45,234.58l1.93-.22a11.87,11.87,0,0,1,2.54-.09,2,2,0,0,1,1,.44,1.69,1.69,0,0,1,.51.8,12.82,12.82,0,0,1,.24,1.79l.3,3.31a8.34,8.34,0,0,1,0,1.71,1.37,1.37,0,0,1-.36.71,1.9,1.9,0,0,1-.71.41,7.38,7.38,0,0,1-1.32.22l-3.11.34C227.18,240.86,226.81,237.72,226.45,234.58Zm2.74,1.33.65,6.2c.36,0,.57-.13.64-.28a3.11,3.11,0,0,0,0-1.17c-.13-1.22-.25-2.44-.37-3.66a4.38,4.38,0,0,0-.13-.82.39.39,0,0,0-.22-.25A1.41,1.41,0,0,0,229.19,235.91Z" transform="translate(-198 -228)"/><path class="cls-2" d="M233.38,233.88c1.43-.12,2.86-.23,4.3-.32l.12,1.89-1.71.12.14,1.8,1.58-.11.12,1.8-1.57.11.15,2.08,1.83-.13c0,.63.08,1.26.13,1.89-1.43.1-2.86.2-4.29.33Q233.77,238.6,233.38,233.88Z" transform="translate(-198 -228)"/><path class="cls-2" d="M238.59,233.5l1.83-.1a13.53,13.53,0,0,1,2.48,0,1.66,1.66,0,0,1,1.08.65,3,3,0,0,1,.47,1.75,2.76,2.76,0,0,1-.22,1.49,1.52,1.52,0,0,1-1.1.5,1.87,1.87,0,0,1,1,.45,1.47,1.47,0,0,1,.34.55,7.7,7.7,0,0,1,.11,1.4c0,.83.07,1.66.1,2.5l-2.3.09-.15-3.15a2.13,2.13,0,0,0-.17-.93c-.09-.12-.31-.17-.65-.15l.21,4.27-2.47.14C239,239.81,238.79,236.66,238.59,233.5Zm2.67,1.48c0,.7.07,1.4.1,2.1a1.14,1.14,0,0,0,.6-.14c.11-.08.15-.33.14-.75l0-.52a.77.77,0,0,0-.19-.58A1,1,0,0,0,241.26,235Z" transform="translate(-198 -228)"/><path class="cls-2" d="M245.36,233.18l1.83-.05a14,14,0,0,1,2.48.09,1.66,1.66,0,0,1,1.06.68,3,3,0,0,1,.42,1.76,2.71,2.71,0,0,1-.27,1.49,1.52,1.52,0,0,1-1.11.47,1.79,1.79,0,0,1,1,.48,1.43,1.43,0,0,1,.33.55,10,10,0,0,1,.07,1.41c0,.83,0,1.66,0,2.5l-2.3,0-.06-3.15a2.07,2.07,0,0,0-.14-.94c-.08-.12-.3-.17-.65-.17l.09,4.28-2.48.06Zm2.62,1.56c0,.7,0,1.4,0,2.11a1.16,1.16,0,0,0,.6-.13c.12-.08.17-.33.16-.74v-.52c0-.31-.06-.5-.18-.59A.88.88,0,0,0,248,234.74Z" transform="translate(-198 -228)"/><path class="cls-2" d="M254.23,240l2.4,0c0,.44,0,.72,0,.83a.43.43,0,0,0,.14.3.52.52,0,0,0,.34.12.44.44,0,0,0,.31-.11.39.39,0,0,0,.13-.28,6.73,6.73,0,0,0,0-.71l0-1.51a1.24,1.24,0,0,1-.55.56,1.86,1.86,0,0,1-.89.17,2,2,0,0,1-1.17-.36,1.53,1.53,0,0,1-.64-.85,5.26,5.26,0,0,1-.13-1.33v-.76a8.85,8.85,0,0,1,.09-1.48,2,2,0,0,1,.43-.9,2.24,2.24,0,0,1,1-.63,4.07,4.07,0,0,1,1.41-.2,4.12,4.12,0,0,1,1.63.3,2.25,2.25,0,0,1,1,.79,2.18,2.18,0,0,1,.37,1c0,.36,0,1.07,0,2.11l0,1.32c0,1.12-.08,1.88-.12,2.26a2.28,2.28,0,0,1-1.45,1.8,3.83,3.83,0,0,1-1.44.22,3.66,3.66,0,0,1-1.64-.35,2,2,0,0,1-.91-.91A3.44,3.44,0,0,1,254.23,240Zm2.46-2.93a1.1,1.1,0,0,0,.14.74.55.55,0,0,0,.33.15.43.43,0,0,0,.37-.17,1.36,1.36,0,0,0,.13-.7c0-.57,0-1.15,0-1.72a1.93,1.93,0,0,0-.09-.82.4.4,0,0,0-.37-.2.52.52,0,0,0-.34.14,1.26,1.26,0,0,0-.18.8Z" transform="translate(-198 -228)"/><path class="cls-2" d="M266.88,236l-2.45-.14c0-.44,0-.72,0-.83a.46.46,0,0,0-.13-.3.56.56,0,0,0-.36-.14.46.46,0,0,0-.31.1.42.42,0,0,0-.16.28c0,.12,0,.35-.05.71s-.05,1-.07,1.51a1.28,1.28,0,0,1,.58-.55,1.94,1.94,0,0,1,.9-.14A2,2,0,0,1,266,237a1.5,1.5,0,0,1,.6.88,5,5,0,0,1,.05,1.33l0,.76a12,12,0,0,1-.17,1.47,2,2,0,0,1-.47.88,2.22,2.22,0,0,1-.95.58,3.66,3.66,0,0,1-1.36.16,3.92,3.92,0,0,1-1.56-.34,2.17,2.17,0,0,1-.92-.79,2.46,2.46,0,0,1-.35-1.06c0-.36,0-1.07,0-2.11,0-.44,0-.88.05-1.32,0-1.12.09-1.88.14-2.26a2.13,2.13,0,0,1,.46-1.06,2.25,2.25,0,0,1,1.05-.72,4.48,4.48,0,0,1,3.21.23,2,2,0,0,1,.9,1A3.4,3.4,0,0,1,266.88,236Zm-2.6,2.81a1.52,1.52,0,0,0-.08-.69.46.46,0,0,0-.74-.05,1.31,1.31,0,0,0-.15.7l-.09,1.71a2.13,2.13,0,0,0,.07.83.4.4,0,0,0,.36.21.52.52,0,0,0,.33-.14c.11-.09.18-.36.2-.79C264.21,240,264.24,239.44,264.28,238.84Z" transform="translate(-198 -228)"/><path class="cls-2" d="M269,241.22c0,.64-.09,1.28-.14,1.93l-1.79-.13.12-1.93Z" transform="translate(-198 -228)"/><path class="cls-2" d="M274.46,238.23a1.5,1.5,0,0,1,.76.68,4.17,4.17,0,0,1,.07,2,4.45,4.45,0,0,1-.44,1.72,1.85,1.85,0,0,1-1,.86,3.73,3.73,0,0,1-1.66.17,3.58,3.58,0,0,1-1.74-.53,1.85,1.85,0,0,1-.77-1,6,6,0,0,1-.06-1.91l.06-.75,2.41.2c0,.51-.09,1-.13,1.54a2.34,2.34,0,0,0,0,.78c0,.12.15.18.32.2a.36.36,0,0,0,.38-.18,3.77,3.77,0,0,0,.19-1.09l.06-.65a2.14,2.14,0,0,0-.05-.81.65.65,0,0,0-.35-.36,3.33,3.33,0,0,0-.94-.17l.12-1.38a5.12,5.12,0,0,0,1.07,0,.46.46,0,0,0,.33-.25,2,2,0,0,0,.15-.67l.05-.52a1.38,1.38,0,0,0-.05-.67.37.37,0,0,0-.32-.18.36.36,0,0,0-.36.13,1.57,1.57,0,0,0-.16.7c0,.26,0,.52-.07.78l-2.44-.2.06-.81a2.15,2.15,0,0,1,.79-1.78,3.54,3.54,0,0,1,2.1-.3,3.29,3.29,0,0,1,2.34.88,2.52,2.52,0,0,1,.44,1.89,2.15,2.15,0,0,1-.34,1.13A2,2,0,0,1,274.46,238.23Z" transform="translate(-198 -228)"/><path class="cls-2" d="M279.14,234.6c1.45.17,2.9.35,4.35.55l-.26,1.88-1.76-.23c-.08.59-.16,1.19-.23,1.78l1.56.21-.24,1.78-1.55-.2-.51,3.95L278,244Q278.58,239.31,279.14,234.6Z" transform="translate(-198 -228)"/><path class="cls-2" d="M292,236.47c-.55,3.12-1.09,6.23-1.64,9.35l-2.14-.37c.35-2.1.69-4.21,1-6.32q-1,3.09-1.9,6.18l-1.52-.23c0-2.11,0-4.22,0-6.33l-.92,6.19-2.15-.31c.43-3.13.87-6.26,1.3-9.4l3.32.49q0,.87,0,2c0,.81,0,1.63,0,2.44.42-1.43.85-2.86,1.28-4.28C289.8,236.09,290.91,236.28,292,236.47Z" transform="translate(-198 -228)"/></svg>